<svg id="Capa_1" enable-background="new 0 0 512 512" height="512" viewBox="0 0 512 512" width="512" xmlns="http://www.w3.org/2000/svg"><g><g><path d="m502 70v432h-492v-432c0-33.14 26.86-60 60-60h372c33.14 0 60 26.86 60 60z" fill="#9bbeff"/><path d="m70 166h372v216h-372z" fill="#eefaff"/><path d="m70 73h372v93h-372z" fill="#8690a6"/><path d="m346 322v60h-180v-60h60v-30h60v30z" fill="#ffda8f"/><path d="m286 196c-7.259 0-52.693 0-60 0 0-7.259 0-52.693 0-60h60z" fill="#ff9256"/></g><g><path d="m452 382v-309c0-5.523-4.478-10-10-10h-372c-5.522 0-10 4.477-10 10v309c0 5.523 4.478 10 10 10h372c5.522 0 10-4.477 10-10zm-116-10h-160v-40h50c5.522 0 10-4.477 10-10v-20h40v20c0 5.523 4.478 10 10 10h50zm96 0h-76v-50c0-5.523-4.478-10-10-10h-50v-20c0-5.523-4.478-10-10-10h-60c-5.522 0-10 4.477-10 10v20h-50c-5.522 0-10 4.477-10 10v50h-76v-196h136v20c0 5.523 4.478 10 10 10h20v20c0 5.523 4.478 10 10 10s10-4.477 10-10v-20h20c5.522 0 10-4.477 10-10v-20h136zm-196-186v-40h40v40zm196-30h-136v-20c0-5.523-4.478-10-10-10h-60c-5.522 0-10 4.477-10 10v20h-136v-73h352z"/><path d="m70 432c-5.522 0-10 4.477-10 10s4.478 10 10 10h30c5.522 0 10-4.477 10-10s-4.478-10-10-10z"/><path d="m160 432c-5.522 0-10 4.477-10 10s4.478 10 10 10h30c5.522 0 10-4.477 10-10s-4.478-10-10-10z"/><path d="m250 452h30c5.522 0 10-4.477 10-10s-4.478-10-10-10h-30c-5.522 0-10 4.477-10 10s4.478 10 10 10z"/><circle cx="256" cy="502" r="10"/><path d="m442 0h-372c-38.598 0-70 31.402-70 70v432c0 5.523 4.478 10 10 10h201c5.522 0 10-4.477 10-10s-4.478-10-10-10h-191v-422c0-27.57 22.43-50 50-50h372c27.57 0 50 22.43 50 50v422h-191c-5.522 0-10 4.477-10 10s4.478 10 10 10h201c5.522 0 10-4.477 10-10v-432c0-38.598-31.402-70-70-70z"/></g></g></svg>